<svg width="17" height="20" viewBox="0 0 17 20" fill="none" xmlns="http://www.w3.org/2000/svg">
<path d="M16.9957 17.2883L15.7795 4.39264C15.7534 4.10634 15.4972 3.88957 15.1975 3.88957H12.6957C12.661 1.73824 10.7933 0 8.5 0C6.20669 0 4.33904 1.73824 4.30429 3.88957H1.8025C1.49847 3.88957 1.24655 4.10634 1.22049 4.39264L0.00434348 17.2883C0.00434348 17.3047 0 17.3211 0 17.3374C0 18.8057 1.42897 20 3.18804 20H13.812C15.571 20 17 18.8057 17 17.3374C17 17.3211 17 17.3047 16.9957 17.2883ZM8.5 1.10429C10.1461 1.10429 11.4882 2.34765 11.523 3.88957H5.47701C5.51175 2.34765 6.85386 1.10429 8.5 1.10429ZM13.812 18.8957H3.18804C2.08482 18.8957 1.19009 18.2086 1.17271 17.362L2.33674 4.99795H4.29995V6.67485C4.29995 6.9816 4.56055 7.22699 4.88631 7.22699C5.21206 7.22699 5.47266 6.9816 5.47266 6.67485V4.99795H11.523V6.67485C11.523 6.9816 11.7836 7.22699 12.1094 7.22699C12.4351 7.22699 12.6957 6.9816 12.6957 6.67485V4.99795H14.6589L15.8273 17.362C15.8099 18.2086 14.9108 18.8957 13.812 18.8957Z" fill="black"/>
</svg>
