<svg width="12" height="12" viewBox="0 0 12 12" fill="none" xmlns="http://www.w3.org/2000/svg">
<path d="M6 0C9.3137 0 12 2.6863 12 6C12 9.3137 9.3137 12 6 12C2.6863 12 0 9.3137 0 6C0 2.6863 2.6863 0 6 0Z" fill="#F4B844"/>
<path d="M6.00006 10.5215C8.49723 10.5215 10.5216 8.49719 10.5216 6.00003C10.5216 3.50287 8.49723 1.47852 6.00006 1.47852C3.5029 1.47852 1.47855 3.50287 1.47855 6.00003C1.47855 8.49719 3.5029 10.5215 6.00006 10.5215Z" fill="#FEDB41"/>
<path d="M5.99994 5.5552C5.57186 5.5552 5.22483 5.20817 5.22483 4.78009C5.22483 4.35201 5.57186 4.00498 5.99994 4.00498C6.42802 4.00498 6.77506 4.35201 6.77506 4.78009C6.77506 4.93865 6.90358 5.06717 7.06214 5.06717C7.22069 5.06717 7.34922 4.93865 7.34922 4.78009C7.34353 4.1501 6.90262 3.60789 6.28703 3.47387V3.12937C6.28703 2.97081 6.1585 2.84229 5.99994 2.84229C5.84139 2.84229 5.71286 2.97081 5.71286 3.12937V3.47387C4.991 3.6588 4.55572 4.39394 4.74068 5.1158C4.8892 5.69554 5.40188 6.10816 5.99994 6.12937C6.42802 6.12937 6.77506 6.4764 6.77506 6.90448C6.77506 7.33256 6.42802 7.67959 5.99994 7.67959C5.57186 7.67959 5.22483 7.33256 5.22483 6.90448C5.22483 6.74592 5.09631 6.6174 4.93775 6.6174C4.7792 6.6174 4.65067 6.74592 4.65067 6.90448C4.65094 7.53642 5.09427 8.0816 5.71286 8.2107V8.72744C5.71286 8.886 5.84139 9.01452 5.99994 9.01452C6.1585 9.01452 6.28703 8.886 6.28703 8.72744V8.2107C7.00889 8.02577 7.44417 7.29063 7.25921 6.56877C7.11068 5.98903 6.59801 5.57639 5.99994 5.5552Z" fill="#B98828"/>
</svg>
