<svg width="14" height="18" viewBox="0 0 14 18" fill="none" xmlns="http://www.w3.org/2000/svg">
<path d="M11.4025 5.40439C11.0304 4.98299 10.4519 4.41422 10.2058 5.69849C10.1221 6.13515 9.92654 6.47175 9.75896 6.74277C9.57834 5.79457 9.03491 4.81312 8.52287 4.15138C8.33126 3.9038 7.6514 2.9196 7.52079 1.27308C7.50129 1.02734 7.21988 0.911948 7.04386 1.0777C5.36174 2.66156 4.43845 4.83992 4.40416 7.2923C4.40416 7.2923 3.70372 6.6799 3.32319 5.54062C3.22073 5.23382 2.82419 5.17529 2.65215 5.44657C2.61912 5.49866 2.5885 5.55082 2.56088 5.60147C1.26306 7.98175 0.638748 10.8723 1.2159 13.5615C2.18091 18.0651 8.56433 19.3242 11.9437 16.4936C15.2501 13.7242 14.1991 8.56973 11.4025 5.40439Z" fill="#E89528"/>
<path d="M2.08189 13.3314C1.52793 10.6894 2.1143 7.85239 3.34498 5.50248C3.31385 5.42453 3.28391 5.3439 3.25594 5.26007C3.15644 4.96186 2.77138 4.90496 2.60432 5.16865C2.57224 5.21928 2.54254 5.26999 2.51572 5.31921C1.25544 7.63291 0.6492 10.4426 1.20966 13.0566C1.63709 15.0533 3.15932 16.3935 5 17C3.56406 16.2778 2.43955 15.0398 2.08189 13.3314Z" fill="#F4A32C"/>
<path d="M4.863 6.65706C4.92998 4.64385 5.67198 2.83865 7 1.45188C6.99086 1.37551 6.9841 1.30722 6.97973 1.25539C6.96069 1.03122 6.70149 0.918789 6.53394 1.06741C4.98069 2.44554 4.03398 4.39599 4 6.69783L4.29071 6.91938C4.43388 7.02851 4.62787 7.02376 4.7646 6.9238C4.84619 6.85594 4.8579 6.75352 4.863 6.65706Z" fill="#F4A32C"/>
<path d="M9.20171 9.10899C8.94413 8.81154 8.54359 8.41003 8.37321 9.31659C8.31529 9.62479 8.17986 9.86243 8.06391 10.0537C7.93887 9.38442 7.56262 8.69161 7.20815 8.22453C7.07549 8.04977 6.60484 7.35506 6.51439 6.19275C6.50089 6.01927 6.30609 5.93786 6.18423 6.05485C5.01969 7.17284 4.38045 8.71056 4.35675 10.4416C4.35675 10.4416 3.87181 10.0093 3.6084 9.20513C3.53747 8.98858 3.26292 8.94727 3.14383 9.13876C3.12098 9.17551 3.09977 9.21236 3.08064 9.2481C2.18212 10.9283 1.74991 12.9686 2.14946 14.8669C2.81756 18.0459 7.23685 18.9347 9.57646 16.9366C11.8655 14.9818 11.1378 11.3434 9.20171 9.10899Z" fill="#F4A32C"/>
<path d="M3.00645 15.2817C2.64415 13.3708 3.0194 11.3204 3.815 9.61295C3.75437 9.48671 3.69692 9.34716 3.64717 9.1945C3.57453 8.9715 3.29335 8.92892 3.17139 9.12611C3.14799 9.16395 3.12626 9.2019 3.10668 9.23875C2.18651 10.969 1.74391 13.0701 2.15304 15.0249C2.47127 16.5475 3.62059 17.5596 5 18C4.01995 17.4773 3.24829 16.5591 3.00645 15.2817Z" fill="#E89528"/>
<path d="M8.80199 12.0727C8.63025 11.8744 8.36313 11.6067 8.24953 12.2111C8.21093 12.4166 8.12061 12.5749 8.04327 12.7025C7.95988 12.2562 7.70905 11.7944 7.47265 11.483C7.38423 11.3665 7.0704 10.9034 7.01006 10.1285C7.00104 10.0129 6.87119 9.95855 6.78992 10.0366C6.01342 10.7819 5.58722 11.8071 5.57141 12.9611C5.57141 12.9611 5.24804 12.6729 5.07243 12.1368C5.02513 11.9924 4.84208 11.9649 4.76268 12.0925C4.74742 12.117 4.73332 12.1416 4.72053 12.1654C4.12145 13.2855 3.83324 14.6458 4.09965 15.9113C4.54512 18.0306 7.49181 18.6232 9.05179 17.2911C9.58599 16.8349 9.91721 16.1922 9.98438 15.4812C10.0858 14.4043 9.69382 13.1017 8.80199 12.0727Z" fill="#F4D44E"/>
<path d="M8.20127 14.2965C8.08676 14.1724 7.90872 14.005 7.83297 14.383C7.80724 14.5116 7.74705 14.6106 7.69546 14.6904C7.63987 14.4113 7.47265 14.1224 7.31507 13.9276C7.25612 13.8547 7.04687 13.565 7.00664 13.0804C7.00063 13.008 6.91402 12.9741 6.85989 13.0228C6.34225 13.4891 6.05806 14.1303 6.04754 14.8521C6.04754 14.8521 5.83197 14.6719 5.71488 14.3365C5.68333 14.2462 5.56131 14.229 5.50841 14.3089C5.49824 14.3242 5.48883 14.3395 5.48036 14.3545C5.08097 15.0551 4.88882 15.9059 5.06644 16.6975C5.47092 18.5029 8.78626 18.4482 8.98961 16.4285C9.05711 15.7549 8.79581 14.9401 8.20127 14.2965Z" fill="#EAE9E8"/>
<path d="M5.70402 17.0731C5.55448 16.362 5.71625 15.5976 6.05251 14.9682C6.05965 14.9548 6.06759 14.941 6.07612 14.9273C6.12069 14.8555 6.22343 14.871 6.24996 14.9521C6.34854 15.2534 6.53003 15.4153 6.53003 15.4153C6.53733 14.8825 6.70043 14.3988 7 14.0108C6.93301 13.901 6.72807 13.6363 6.68944 13.0807C6.68437 13.0081 6.61145 12.974 6.56588 13.0229C6.13007 13.4912 5.8908 14.1351 5.88195 14.8601C5.88195 14.8601 5.70046 14.679 5.60188 14.3423C5.57534 14.2516 5.47258 14.2343 5.42804 14.3145C5.41948 14.3299 5.41156 14.3453 5.40442 14.3603C5.06817 15.0639 4.9064 15.9184 5.05594 16.7134C5.19432 17.4503 5.76283 17.8931 6.39136 18C6.05231 17.803 5.79174 17.4909 5.70402 17.0731Z" fill="#F7E7A1"/>
<path d="M4.50001 2C5.16741 1.48302 5.16592 0.515806 4.50001 0C3.83261 0.516952 3.83406 1.48419 4.50001 2Z" fill="#F4D44E"/>
<path d="M13.4292 7C14.1911 6.48302 14.1894 5.51581 13.4292 5C13.0809 5.23626 12.6689 6.48419 13.4292 7Z" fill="#F4D44E"/>
<path d="M0.42918 8C1.1911 7.483 1.18944 6.51585 0.42918 6C0.0809482 6.23625 -0.331083 7.48419 0.42918 8Z" fill="#F4D44E"/>
<path d="M9.49999 4C10.1674 3.483 10.1659 2.51585 9.49999 2C8.83259 2.51696 8.83409 3.48419 9.49999 4Z" fill="#F4D44E"/>
<path d="M5.59633 10.6011C5.70366 8.98693 6.18754 7.55164 7 6.45744C6.99178 6.37813 6.98486 6.29671 6.97946 6.21301C6.96707 6.0213 6.78837 5.93133 6.67657 6.06061C5.82998 7.03963 5.28664 8.31014 5.08649 9.74719L5.08619 9.74707C5.07134 9.85366 5.05293 10.0089 5.04129 10.1309C5.04132 10.131 5.04135 10.1311 5.04141 10.1312C5.01709 10.3858 5.003 10.645 5 10.9084C5.02261 10.914 5.53446 11.2492 5.59633 10.6011Z" fill="#E89528"/>
<path d="M4.9155 16.3217C4.67531 15.1055 4.87987 13.8086 5.35509 12.6848C5.26303 12.5464 5.16229 12.3604 5.08773 12.1295C5.03973 11.981 4.85411 11.9527 4.77354 12.084C4.75809 12.1092 4.74373 12.1344 4.73079 12.159C4.12318 13.3113 3.83087 14.7105 4.10107 16.0124C4.31269 17.0334 5.08068 17.71 6 18C5.46489 17.619 5.0601 17.0551 4.9155 16.3217Z" fill="#E8C842"/>
<path d="M6.56088 12.4652C6.61239 11.8669 6.76297 11.2077 7 10.6566C6.97418 10.501 6.95388 10.3251 6.94397 10.1296C6.93805 10.013 6.85282 9.9582 6.79952 10.0369C6.48205 10.5053 6.25419 11.0834 6.12474 11.734L6.1244 11.7339C6.10403 11.8361 6.07524 12.0055 6.05778 12.1391C6.05793 12.1391 6.05808 12.1391 6.05823 12.139C6.02248 12.4117 6.0026 12.6948 6 12.9862C6.28506 13.044 6.52086 12.9293 6.56088 12.4652Z" fill="#E8C842"/>
</svg>
