<svg width="33" height="33" viewBox="0 0 33 33" fill="none" xmlns="http://www.w3.org/2000/svg">
<path d="M33 16.5C33 25.6127 25.6127 33 16.5 33C7.3873 33 0 25.6127 0 16.5C0 7.3873 7.3873 0 16.5 0C25.6127 0 33 7.3873 33 16.5Z" fill="white"/>
<path d="M11.0544 8H22.9466C24.0764 8 25 8.98177 25 10.1823V22.8187C25 24.0189 24.0764 25 22.9466 25H11.0544C9.92459 25 9 24.0189 9 22.8187V10.1823C9 8.98177 9.92459 8 11.0544 8ZM20.6558 9.88811C20.2591 9.88811 19.9355 10.2333 19.9355 10.6546V12.4859C19.9355 12.9073 20.2591 13.2517 20.6558 13.2517H22.4639C22.86 13.2517 23.1843 12.9073 23.1843 12.4859V10.6546C23.1843 10.2333 22.86 9.88811 22.4639 9.88811H20.6558ZM23.1911 15.1891H21.7834C21.9169 15.6524 21.9892 16.1409 21.9892 16.6489C21.9892 19.4757 19.7617 21.7686 17.015 21.7686C14.2691 21.7686 12.0415 19.4757 12.0415 16.6489C12.0415 16.1409 12.1146 15.6524 12.2474 15.1891H10.7787V22.3711C10.7787 22.7431 11.0645 23.0456 11.4142 23.0456H22.5559C22.9059 23.0456 23.1911 22.7431 23.1911 22.3711V15.1891ZM17.0151 13.1552C15.2412 13.1552 13.8023 14.6359 13.8023 16.4641C13.8023 18.2904 15.2412 19.7723 17.0151 19.7723C18.7899 19.7723 20.2289 18.2904 20.2289 16.4641C20.2289 14.6358 18.7899 13.1552 17.0151 13.1552Z" fill="#121212"/>
</svg>
