<svg width="58" height="22" viewBox="0 0 58 22" fill="none" xmlns="http://www.w3.org/2000/svg">
<path d="M1.99003 22.0001C1.53003 22.0001 1.13003 21.8301 0.790029 21.4901C0.450029 21.1501 0.280029 20.7501 0.280029 20.2901V1.8101C0.280029 1.3501 0.450029 0.950097 0.790029 0.610097C1.13003 0.270098 1.53003 0.100098 1.99003 0.100098H3.46003C4.60003 0.100098 5.43003 0.600097 5.95003 1.6001L12.25 13.5101C12.25 13.5301 12.26 13.5401 12.28 13.5401C12.3 13.5401 12.31 13.5301 12.31 13.5101V1.8101C12.31 1.3501 12.48 0.950097 12.82 0.610097C13.16 0.270098 13.56 0.100098 14.02 0.100098H15.49C15.95 0.100098 16.35 0.270098 16.69 0.610097C17.03 0.950097 17.2 1.3501 17.2 1.8101V20.2901C17.2 20.7501 17.03 21.1501 16.69 21.4901C16.35 21.8301 15.95 22.0001 15.49 22.0001H14.02C12.88 22.0001 12.05 21.5001 11.53 20.5001L5.23003 8.5901C5.23003 8.5701 5.22003 8.5601 5.20003 8.5601C5.18003 8.5601 5.17003 8.5701 5.17003 8.5901V20.2901C5.17003 20.7501 5.00003 21.1501 4.66003 21.4901C4.32003 21.8301 3.92003 22.0001 3.46003 22.0001H1.99003Z" fill="black"/>
<path d="M23.8846 22.0001C23.4246 22.0001 23.0246 21.8301 22.6846 21.4901C22.3646 21.1501 22.2046 20.7501 22.2046 20.2901V1.8101C22.2046 1.3501 22.3646 0.950097 22.6846 0.610097C23.0246 0.270098 23.4246 0.100098 23.8846 0.100098H26.1046C26.5646 0.100098 26.9546 0.270098 27.2746 0.610097C27.6146 0.950097 27.7846 1.3501 27.7846 1.8101V20.2901C27.7846 20.7501 27.6146 21.1501 27.2746 21.4901C26.9546 21.8301 26.5646 22.0001 26.1046 22.0001H23.8846Z" fill="black"/>
<path d="M33.1896 22.0001C32.7896 22.0001 32.4896 21.8301 32.2896 21.4901C32.0896 21.1501 32.0796 20.8101 32.2596 20.4701L36.9696 11.1401C37.0296 10.9801 37.0296 10.8201 36.9696 10.6601L32.4096 1.6301C32.2296 1.2901 32.2396 0.950097 32.4396 0.610097C32.6396 0.270098 32.9396 0.100098 33.3396 0.100098H35.5296C36.0496 0.100098 36.5196 0.240098 36.9396 0.520098C37.3796 0.800098 37.6996 1.1801 37.8996 1.6601L40.5096 7.9301C40.5096 7.9501 40.5196 7.9601 40.5396 7.9601C40.5596 7.9601 40.5696 7.9501 40.5696 7.9301L43.1796 1.6601C43.3796 1.1801 43.6896 0.800098 44.1096 0.520098C44.5496 0.240098 45.0296 0.100098 45.5496 0.100098H47.6196C47.9996 0.100098 48.2896 0.270098 48.4896 0.610097C48.7096 0.950097 48.7296 1.2901 48.5496 1.6301L43.9896 10.6601C43.9296 10.8201 43.9296 10.9801 43.9896 11.1401L48.6996 20.4701C48.8796 20.8101 48.8596 21.1501 48.6396 21.4901C48.4396 21.8301 48.1496 22.0001 47.7696 22.0001H45.4596C44.9396 22.0001 44.4696 21.8601 44.0496 21.5801C43.6296 21.2801 43.3196 20.8901 43.1196 20.4101L40.4496 13.8701C40.4496 13.8501 40.4396 13.8401 40.4196 13.8401C40.3996 13.8401 40.3896 13.8501 40.3896 13.8701L37.7196 20.4101C37.5196 20.8901 37.1996 21.2801 36.7596 21.5801C36.3396 21.8601 35.8796 22.0001 35.3796 22.0001H33.1896Z" fill="black"/>
<path d="M53.861 22.0001C53.447 22.0001 53.087 21.8471 52.781 21.5411C52.475 21.2351 52.322 20.8751 52.322 20.4611V18.4091C52.322 17.9951 52.475 17.6351 52.781 17.3291C53.087 17.0231 53.447 16.8701 53.861 16.8701H55.913C56.327 16.8701 56.687 17.0231 56.993 17.3291C57.299 17.6351 57.452 17.9951 57.452 18.4091V20.4611C57.452 20.8751 57.299 21.2351 56.993 21.5411C56.687 21.8471 56.327 22.0001 55.913 22.0001H53.861Z" fill="#FFC107"/>
</svg>
