<svg width="271" height="22" viewBox="0 0 271 22" fill="none" xmlns="http://www.w3.org/2000/svg">
<rect x="156" width="35" height="22" rx="2" fill="white"/>
<rect x="40" width="35" height="22" rx="2" fill="white"/>
<path d="M60 7H55V16H60V7Z" fill="#FF5F00"/>
<path d="M55.6394 11C55.6394 9.08621 56.5625 7.38146 58 6.28285C56.9488 5.4795 55.6221 5 54.1803 5C50.7669 5 48 7.68625 48 11C48 14.3138 50.7669 17 54.1803 17C55.6221 17 56.9488 16.5205 58 15.7171C56.5625 14.6185 55.6394 12.9138 55.6394 11Z" fill="#EB001B"/>
<path d="M68 11C68 14.3138 65.2332 17 61.8199 17C60.3782 17 59.0516 16.5205 58 15.7171C59.4378 14.6185 60.3609 12.9138 60.3609 11C60.3609 9.08621 59.4378 7.38146 58 6.28285C59.0516 5.4795 60.3782 5 61.8199 5C65.2332 5 68 7.68625 68 11Z" fill="#F79E1B"/>
<rect width="35" height="22" rx="2" fill="white"/>
<path d="M14 15L15.1707 7H17L15.8659 15H14Z" fill="#3C58BF"/>
<path d="M14 15L15.5 7H17L15.8659 15H14Z" fill="#293688"/>
<path d="M23 7.33684C22.6078 7.16842 21.9804 7 21.1961 7C19.2353 7 17.8235 8.05263 17.8235 9.56842C17.8235 10.7053 18.8039 11.2947 19.5882 11.6737C20.3725 12.0526 20.6078 12.3053 20.6078 12.6421C20.6078 13.1474 19.9804 13.4 19.4314 13.4C18.6471 13.4 18.2157 13.2737 17.549 12.9789L17.2745 12.8526L17 14.5789C17.4706 14.7895 18.3333 15 19.2353 15C21.3137 15 22.6863 13.9474 22.6863 12.3474C22.6863 11.4632 22.1765 10.7895 21 10.2421C20.2941 9.86316 19.8627 9.65263 19.8627 9.27368C19.8627 8.93684 20.2157 8.6 21 8.6C21.6667 8.6 22.1373 8.72632 22.4902 8.89474L22.6863 8.97895L23 7.33684Z" fill="#3C58BF"/>
<path d="M23 7.33684C22.6078 7.16842 21.9804 7 21.1961 7C19.2353 7 18.1765 8.05263 18.1765 9.56842C18.1765 10.7053 18.8039 11.2947 19.5882 11.6737C20.3725 12.0526 20.6078 12.3053 20.6078 12.6421C20.6078 13.1474 19.9804 13.4 19.4314 13.4C18.6471 13.4 18.2157 13.2737 17.549 12.9789L17.2745 12.8526L17 14.5789C17.4706 14.7895 18.3333 15 19.2353 15C21.3137 15 22.6863 13.9474 22.6863 12.3474C22.6863 11.4632 22.1765 10.7895 21 10.2421C20.2941 9.86316 19.8627 9.65263 19.8627 9.27368C19.8627 8.93684 20.2157 8.6 21 8.6C21.6667 8.6 22.1373 8.72632 22.4902 8.89474L22.6863 8.97895L23 7.33684Z" fill="#293688"/>
<path d="M26.4396 7C25.9121 7 25.5165 7.04444 25.2967 7.57778L22 15H24.3736L24.8132 13.6667H27.6264L27.8901 15H30L28.1538 7H26.4396ZM25.4286 12.3333C25.5604 11.9333 26.3077 9.97778 26.3077 9.97778C26.3077 9.97778 26.4835 9.48889 26.6154 9.17778L26.7473 9.93333C26.7473 9.93333 27.1868 11.9333 27.2747 12.3778H25.4286V12.3333Z" fill="#3C58BF"/>
<path d="M26.967 7C26.4396 7 26.044 7.04444 25.8242 7.57778L22 15H24.3736L24.8132 13.6667H27.6264L27.8901 15H30L28.1538 7H26.967ZM25.4286 12.3333C25.6044 11.8889 26.3077 9.97778 26.3077 9.97778C26.3077 9.97778 26.4835 9.48889 26.6154 9.17778L26.7473 9.93333C26.7473 9.93333 27.1868 11.9333 27.2747 12.3778H25.4286V12.3333Z" fill="#293688"/>
<path d="M9.91667 12.5556L9.72222 11.4C9.37222 10.0667 8.24444 8.6 7 7.88889L8.75 15H10.85L14 7H11.9L9.91667 12.5556Z" fill="#3C58BF"/>
<path d="M9.91667 12.5556L9.72222 11.4C9.37222 10.0667 8.24444 8.6 7 7.88889L8.75 15H10.85L14 7H12.2889L9.91667 12.5556Z" fill="#293688"/>
<path d="M4 7L4.40299 7.08C7.26866 7.68 9.23881 9.2 10 11L9.19403 7.6C9.0597 7.12 8.65672 7 8.16418 7H4Z" fill="#FFBC00"/>
<path d="M4 7C6.86567 7.60606 9.23881 9.18182 10 11L9.23881 8.13131C9.10448 7.64647 8.65672 7.36364 8.16418 7.36364L4 7Z" fill="#F7981D"/>
<path d="M4 7C6.86567 7.60606 9.23881 9.18182 10 11L9.46269 9.42424C9.32836 8.93939 9.14925 8.45455 8.52239 8.25253L4 7Z" fill="#ED7C00"/>
<path d="M12 12.375L10.629 10.8875L9.98387 12.55L9.82258 11.4563C9.45968 10.1438 8.29032 8.7 7 8L8.81452 15H10.9919L12 12.375Z" fill="#051244"/>
<path d="M16 15L14.3137 13L14 15H16Z" fill="#051244"/>
<path d="M20.3462 12C20.5 12.1791 20.5769 12.3134 20.5385 12.4925C20.5385 13.0299 19.9231 13.2985 19.3846 13.2985C18.6154 13.2985 18.1923 13.1642 17.5385 12.8507L17.2692 12.7164L17 14.5522C17.4615 14.7761 18.3077 15 19.1923 15C20.4231 15 21.4231 14.597 22 13.8806L20.3462 12Z" fill="#051244"/>
<path d="M23 15H24.88L25.28 13.626H27.84L28.08 15H30L29.32 11.6565L26.92 9L27.04 9.73282C27.04 9.73282 27.44 11.7939 27.52 12.2519H25.84C26 11.7939 26.64 9.82443 26.64 9.82443C26.64 9.82443 26.8 9.32061 26.92 9" fill="#051244"/>
<rect x="116" width="35" height="22" rx="2" fill="white"/>
<path d="M81.9375 0H109.063C110.132 0 111 0.856967 111 1.91388V20.0871C111 21.143 110.132 22 109.063 22H81.9375C80.867 22.0001 80 21.143 80 20.0872V1.91388C80 0.856967 80.868 0 81.9375 0Z" fill="#26A6D1"/>
<path d="M85.0472 8L82 14.991H85.6479L86.1001 13.8764H87.1338L87.5861 14.991H91.6014V14.1403L91.9591 14.991H94.0362L94.394 14.1223V14.991H102.745L103.76 13.9053L104.711 14.991L109 15L105.943 11.515L109 8H104.777L103.789 9.06565L102.868 8H93.7836L93.0035 9.80444L92.2051 8H88.5649V8.82179L88.1599 8C88.1599 8 85.0472 8 85.0472 8ZM85.753 8.99273H87.5312L89.5524 13.7334V8.99273H91.5002L93.0614 12.3917L94.5001 8.99273H96.4383V14.0092H95.259L95.2493 10.0783L93.53 14.0092H92.475L90.7461 10.0783V14.0092H88.3199L87.86 12.8846H85.375L84.916 14.0083H83.6161L85.753 8.99273ZM97.5173 8.99273H102.313L103.779 10.6352L105.293 8.99273H106.76L104.532 11.514L106.76 14.0063H105.227L103.76 12.3447L102.238 14.0063H97.5173V8.99273ZM86.618 9.8415L85.7993 11.8449H87.4358L86.618 9.8415ZM98.7015 10.0314V10.9472H101.318V11.9679H98.7015V12.9676H101.636L102.999 11.4951L101.694 10.0305H98.7015V10.0314Z" fill="white"/>
<path d="M132.763 11.2168V14H131.825V6.89062H134.447C135.225 6.89062 135.834 7.08919 136.273 7.48633C136.716 7.88346 136.938 8.40918 136.938 9.06348C136.938 9.75358 136.721 10.2858 136.288 10.6602C135.858 11.0312 135.242 11.2168 134.438 11.2168H132.763ZM132.763 10.4502H134.447C134.949 10.4502 135.333 10.333 135.6 10.0986C135.867 9.861 136 9.51921 136 9.07324C136 8.65007 135.867 8.31152 135.6 8.05762C135.333 7.80371 134.966 7.67188 134.501 7.66211H132.763V10.4502ZM141.195 14C141.143 13.8958 141.101 13.7103 141.068 13.4434C140.648 13.8796 140.147 14.0977 139.564 14.0977C139.044 14.0977 138.616 13.9512 138.28 13.6582C137.948 13.362 137.782 12.9876 137.782 12.5352C137.782 11.985 137.991 11.5586 138.407 11.2559C138.827 10.9499 139.416 10.7969 140.175 10.7969H141.054V10.3818C141.054 10.0661 140.959 9.81543 140.771 9.62988C140.582 9.44108 140.303 9.34668 139.936 9.34668C139.613 9.34668 139.343 9.42806 139.125 9.59082C138.907 9.75358 138.798 9.95052 138.798 10.1816H137.89C137.89 9.91797 137.982 9.66406 138.168 9.41992C138.357 9.17253 138.611 8.97721 138.93 8.83398C139.252 8.69076 139.605 8.61914 139.989 8.61914C140.598 8.61914 141.075 8.77214 141.42 9.07812C141.765 9.38086 141.944 9.79915 141.957 10.333V12.7646C141.957 13.2497 142.019 13.6354 142.143 13.9219V14H141.195ZM139.696 13.3115C139.979 13.3115 140.248 13.2383 140.502 13.0918C140.756 12.9453 140.94 12.7549 141.054 12.5205V11.4365H140.346C139.239 11.4365 138.686 11.7604 138.686 12.4082C138.686 12.6914 138.78 12.9128 138.969 13.0723C139.158 13.2318 139.4 13.3115 139.696 13.3115ZM145.023 12.6768L146.254 8.7168H147.221L145.097 14.8154C144.768 15.6943 144.245 16.1338 143.529 16.1338L143.358 16.1191L143.021 16.0557V15.3232L143.266 15.3428C143.572 15.3428 143.809 15.2809 143.979 15.1572C144.151 15.0335 144.293 14.8073 144.403 14.4785L144.604 13.9414L142.719 8.7168H143.705L145.023 12.6768Z" fill="black"/>
<path d="M126.982 5C126.464 5.03064 125.859 5.3142 125.506 5.68344C125.184 6.01842 124.919 6.51594 125.023 6.99944C125.589 7.0145 126.173 6.72419 126.512 6.34871C126.829 5.9992 127.069 5.50479 126.982 5Z" fill="black"/>
<path d="M129.695 8.05948C129.156 7.38906 128.398 7 127.682 7C126.737 7 126.337 7.44847 125.681 7.44847C125.004 7.44847 124.489 7.00131 123.672 7.00131C122.869 7.00131 122.015 7.48763 121.473 8.31929C120.711 9.49039 120.841 11.6922 122.076 13.5677C122.518 14.2388 123.108 14.9934 123.88 14.9999C124.566 15.0065 124.76 14.5632 125.691 14.5586C126.621 14.5534 126.798 15.0058 127.483 14.9986C128.256 14.9927 128.878 14.1565 129.32 13.4855C129.636 13.0044 129.754 12.7622 130 12.219C128.213 11.5447 127.927 9.02626 129.695 8.05948Z" fill="black"/>
<rect x="236" width="35" height="22" rx="2" fill="white"/>
<g clip-path="url(#clip0)">
<path d="M241.725 10.5C241.725 10.0929 241.825 9.71157 242 9.38505V8H240.759C240.267 8.71393 240 9.58403 240 10.5C240 11.416 240.267 12.2861 240.759 13H242V11.6149C241.825 11.2884 241.725 10.9071 241.725 10.5Z" fill="#FBBD00"/>
<path d="M244.112 13.2739L243 14.1369L244.112 15C245.17 15 246.175 14.7329 247 14.2402V13H245.402C245.021 13.1753 244.579 13.2739 244.112 13.2739Z" fill="#0F9D58"/>
<path d="M242.699 12L241 13.3882C241.134 13.5298 241.279 13.6655 241.436 13.794C242.388 14.5717 243.654 15 245 15V13.0699C244.023 13.0699 243.167 12.6402 242.699 12Z" fill="#31AA52"/>
<path d="M250 10.1204C250 9.823 249.972 9.52504 249.918 9.23484L249.874 9H245V11.2914H247.372C247.142 11.7393 246.788 12.1048 246.359 12.3537L248.043 14C248.215 13.8705 248.379 13.7295 248.536 13.5769C249.48 12.6536 250 11.4261 250 10.1204Z" fill="#3C79E6"/>
<path d="M245.483 8.81332L245.651 9L247 7.50647L246.831 7.31979C246.063 6.46871 245.041 6 243.954 6L243 7.0561L243.954 8.11219C244.531 8.11219 245.074 8.36118 245.483 8.81332Z" fill="#CF2D48"/>
<path d="M245 7.93006V6C243.654 6 242.388 6.4283 241.436 7.20596C241.279 7.33449 241.134 7.47016 241 7.61184L242.699 9C243.167 8.35982 244.023 7.93006 245 7.93006Z" fill="#EB4132"/>
</g>
<path d="M252.763 11.2168V14H251.825V6.89062H254.447C255.225 6.89062 255.834 7.08919 256.273 7.48633C256.716 7.88346 256.938 8.40918 256.938 9.06348C256.938 9.75358 256.721 10.2858 256.288 10.6602C255.858 11.0312 255.242 11.2168 254.438 11.2168H252.763ZM252.763 10.4502H254.447C254.949 10.4502 255.333 10.333 255.6 10.0986C255.867 9.861 256 9.51921 256 9.07324C256 8.65007 255.867 8.31152 255.6 8.05762C255.333 7.80371 254.966 7.67188 254.501 7.66211H252.763V10.4502ZM261.195 14C261.143 13.8958 261.101 13.7103 261.068 13.4434C260.648 13.8796 260.147 14.0977 259.564 14.0977C259.044 14.0977 258.616 13.9512 258.28 13.6582C257.948 13.362 257.782 12.9876 257.782 12.5352C257.782 11.985 257.991 11.5586 258.407 11.2559C258.827 10.9499 259.416 10.7969 260.175 10.7969H261.054V10.3818C261.054 10.0661 260.959 9.81543 260.771 9.62988C260.582 9.44108 260.303 9.34668 259.936 9.34668C259.613 9.34668 259.343 9.42806 259.125 9.59082C258.907 9.75358 258.798 9.95052 258.798 10.1816H257.89C257.89 9.91797 257.982 9.66406 258.168 9.41992C258.357 9.17253 258.611 8.97721 258.93 8.83398C259.252 8.69076 259.605 8.61914 259.989 8.61914C260.598 8.61914 261.075 8.77214 261.42 9.07812C261.765 9.38086 261.944 9.79915 261.957 10.333V12.7646C261.957 13.2497 262.019 13.6354 262.143 13.9219V14H261.195ZM259.696 13.3115C259.979 13.3115 260.248 13.2383 260.502 13.0918C260.756 12.9453 260.94 12.7549 261.054 12.5205V11.4365H260.346C259.239 11.4365 258.686 11.7604 258.686 12.4082C258.686 12.6914 258.78 12.9128 258.969 13.0723C259.158 13.2318 259.4 13.3115 259.696 13.3115ZM265.023 12.6768L266.254 8.7168H267.221L265.097 14.8154C264.768 15.6943 264.245 16.1338 263.529 16.1338L263.358 16.1191L263.021 16.0557V15.3232L263.266 15.3428C263.572 15.3428 263.809 15.2809 263.979 15.1572C264.151 15.0335 264.293 14.8073 264.403 14.4785L264.604 13.9414L262.719 8.7168H263.705L265.023 12.6768Z" fill="#6E6E6E"/>
<path d="M166.67 4C165.162 4 164 4.97092 164 6.66219V11.4855C164.126 12.0805 164.754 12.519 165.445 12.519C166.23 12.519 166.796 11.9553 166.796 11.2662V8.82327H168.932V11.2349C168.932 12.5817 167.204 13.2707 165.948 13.2707C165.225 13.2707 164.534 13.0515 164.031 12.6756V18H167.424C168.618 18 170 16.8725 170 15.4318V4H166.67Z" fill="#1174CE"/>
<path d="M164 6.66219V11.4855C164.126 12.0805 164.754 12.519 165.445 12.519C166.23 12.519 166.796 11.9553 166.796 11.2662V8.82327H168.932V11.2349C168.932 12.5817 167.204 13.2707 165.948 13.2707C165.225 13.2707 164.534 13.0515 164.031 12.6756V18H167.424C168.618 18 170 16.8725 170 15.4318V4" fill="#0F549D"/>
<path d="M168.926 9V11.3652C168.926 12.686 167.189 13.3618 165.926 13.3618C165.2 13.3618 164.505 13.1468 164 12.7782V18H167.411C168.611 18 170 16.8942 170 15.4812" fill="#02375E"/>
<path d="M179 12H180.343C180.686 12 181 11.7609 181 11.5C181 11.2391 180.686 11 180.343 11H179V12Z" fill="#146643"/>
<path d="M180.716 4C179.168 4 178.032 4.97092 178.032 6.63087V8.82327H182.011C182.579 8.82327 183.053 9.29307 183.053 9.85682C183.053 10.4206 182.579 10.8904 182.011 10.8904C182.642 10.8904 183.147 11.3289 183.147 11.8926C183.147 12.4564 182.674 12.8949 182.011 12.8949H178V18H181.411C182.611 18 184 16.8725 184 15.4318V4H180.716Z" fill="#1BCC38"/>
<path d="M178 6.66219V8.82327H181.979C182.547 8.82327 183.021 9.29307 183.021 9.85682C183.021 10.4206 182.547 10.8904 181.979 10.8904C182.611 10.8904 183.116 11.3289 183.116 11.8926C183.116 12.4564 182.642 12.8949 181.979 12.8949H178V18H181.411C182.611 18 184 16.8725 184 15.4318V4" fill="#329947"/>
<path d="M183.021 10C183.021 10.5538 182.547 11.0154 181.979 11.0154C182.611 11.0154 183.116 11.4462 183.116 12C183.116 12.5538 182.642 12.9846 181.979 12.9846H178V18H181.411C182.611 18 184 16.8923 184 15.4769" fill="#146643"/>
<path d="M181 9.51111C181 9.24444 180.681 9 180.333 9H179V10H180.362C180.71 10 181 9.77778 181 9.51111Z" fill="#146643"/>
<path d="M173.684 4C172.137 4 171 4.97092 171 6.63087V9.32439C171.379 9.01119 171.853 8.79195 172.358 8.79195H175.958V9.54362C175.105 9.35571 174.284 9.26175 173.874 9.26175C172.989 9.26175 172.263 9.9821 172.263 10.8591C172.263 11.736 172.989 12.4564 173.874 12.4564C174.284 12.4564 175.105 12.3937 175.958 12.2058V12.8949H172.358C171.853 12.8949 171.347 12.7069 171 12.3624V18H174.411C175.611 18 177 16.8725 177 15.4318V4H173.684Z" fill="#E20E37"/>
<path d="M171 6.66219V9.35571C171.379 9.04251 171.853 8.82327 172.358 8.82327H175.958V9.57494C175.105 9.38703 174.284 9.29307 173.874 9.29307C172.989 9.29307 172.263 10.0134 172.263 10.8904C172.263 11.7673 172.989 12.4877 173.874 12.4877C174.284 12.4877 175.105 12.4251 175.958 12.2371V12.8949H172.358C171.853 12.8949 171.347 12.7069 171 12.3624V18H174.411C175.611 18 177 16.8725 177 15.4318V4" fill="#B41F36"/>
<path d="M175.958 9V9.7372C175.105 9.5529 174.284 9.46075 173.874 9.46075C172.989 9.46075 172.263 10.1672 172.263 11.0273C172.263 11.8874 172.989 12.5939 173.874 12.5939C174.284 12.5939 175.105 12.5324 175.958 12.3481V12.9932H172.358C171.853 12.9932 171.347 12.8089 171 12.471V18H174.411C175.611 18 177 16.8942 177 15.4812" fill="#720A1E"/>
<rect x="196" width="35" height="22" rx="2" fill="white"/>
<path d="M218.264 5.01408C217.64 4.33803 216.479 4 214.873 4H210.41C210.142 4 209.874 4.25352 209.785 4.50704L208 15.5775C208 15.831 208.179 16 208.357 16H211.124L211.838 11.8592V12.0282C211.927 11.7746 212.195 11.5211 212.463 11.5211H213.802C216.39 11.5211 218.354 10.507 218.978 7.71831C218.978 7.6338 218.978 7.54929 218.978 7.46479C218.889 7.46479 218.889 7.46479 218.978 7.46479C219.068 6.3662 218.889 5.69014 218.264 5.01408Z" fill="#263B80"/>
<path d="M218.946 8C218.946 8.08403 218.946 8.16807 218.946 8.2521C218.328 11.1092 216.386 12.0336 213.825 12.0336H212.501C212.236 12.0336 211.971 12.2857 211.883 12.5378L211 17.6639C211 17.8319 211.088 18 211.353 18H213.649C213.914 18 214.178 17.8319 214.178 17.5798V17.4958L214.62 14.8908V14.7227C214.62 14.4706 214.885 14.3025 215.15 14.3025H215.503C217.71 14.3025 219.476 13.4622 219.917 10.9412C220.094 9.93277 220.006 9.0084 219.476 8.42017C219.388 8.2521 219.211 8.08403 218.946 8Z" fill="#139AD6"/>
<path d="M218.222 7.25C218.136 7.25 218.049 7.16667 217.963 7.16667C217.877 7.16667 217.79 7.16667 217.704 7.08333C217.358 7 217.012 7 216.58 7H213.21C213.123 7 213.037 7 212.951 7.08333C212.778 7.16667 212.691 7.33333 212.691 7.5L212 11.8333V12C212.086 11.75 212.346 11.5 212.605 11.5H213.901C216.407 11.5 218.309 10.5 218.914 7.75C218.914 7.66667 218.914 7.58333 219 7.5C218.827 7.41667 218.741 7.33333 218.568 7.33333C218.309 7.25 218.309 7.25 218.222 7.25Z" fill="#232C65"/>
<defs>
<clipPath id="clip0">
<rect width="9" height="9" fill="white" transform="translate(240 6)"/>
</clipPath>
</defs>
</svg>
