<svg width="18" height="18" viewBox="0 0 18 18" fill="none" xmlns="http://www.w3.org/2000/svg">
<path d="M8 0C3.58892 0 0 3.58892 0 8C0 12.4113 3.58892 16 8 16C12.4113 16 16 12.4113 16 8C16 3.58892 12.4113 0 8 0ZM8 14.5231C4.4032 14.5231 1.47692 11.5968 1.47692 8.00004C1.47692 4.40324 4.4032 1.47692 8 1.47692C11.5968 1.47692 14.5231 4.4032 14.5231 8C14.5231 11.5968 11.5968 14.5231 8 14.5231Z" fill="black"/>
<path d="M17.7727 16.6756L13.3244 12.2273C13.0213 11.9242 12.5304 11.9242 12.2273 12.2273C11.9242 12.5302 11.9242 13.0216 12.2273 13.3244L16.6756 17.7727C16.8271 17.9242 17.0255 18 17.2241 18C17.4225 18 17.6211 17.9242 17.7727 17.7727C18.0758 17.4698 18.0758 16.9784 17.7727 16.6756Z" fill="black"/>
</svg>
